<?xml version="1.0" encoding="UTF-8" standalone="no"?>
<!-- Created with Inkscape (http://www.inkscape.org/) -->

<svg
   width="30.48mm"
   height="128.5mm"
   viewBox="0 0 30.480002 128.50002"
   version="1.1"
   id="svg8"
   inkscape:version="1.1 (c68e22c387, 2021-05-23)"
   sodipodi:docname="Infinight.svg"
   xmlns:inkscape="http://www.inkscape.org/namespaces/inkscape"
   xmlns:sodipodi="http://sodipodi.sourceforge.net/DTD/sodipodi-0.dtd"
   xmlns="http://www.w3.org/2000/svg"
   xmlns:svg="http://www.w3.org/2000/svg"
   xmlns:rdf="http://www.w3.org/1999/02/22-rdf-syntax-ns#"
   xmlns:cc="http://creativecommons.org/ns#"
   xmlns:dc="http://purl.org/dc/elements/1.1/">
  <defs
     id="defs2">
    <linearGradient
       id="linearGradient14692"
       inkscape:swatch="solid">
      <stop
         style="stop-color:#000000;stop-opacity:1;"
         offset="0"
         id="stop14690" />
    </linearGradient>
    <marker
       style="overflow:visible;"
       id="Arrow1Mend"
       refX="0.0"
       refY="0.0"
       orient="auto"
       inkscape:stockid="Arrow1Mend"
       inkscape:isstock="true">
      <path
         transform="scale(0.4) rotate(180) translate(10,0)"
         style="fill-rule:evenodd;fill:context-stroke;stroke:context-stroke;stroke-width:1.0pt;"
         d="M 0.0,0.0 L 5.0,-5.0 L -12.5,0.0 L 5.0,5.0 L 0.0,0.0 z "
         id="path21637" />
    </marker>
    <marker
       style="overflow:visible;"
       id="marker21898"
       refX="0.0"
       refY="0.0"
       orient="auto"
       inkscape:stockid="Arrow1Lend"
       inkscape:isstock="true">
      <path
         transform="scale(0.8) rotate(180) translate(12.5,0)"
         style="fill-rule:evenodd;fill:context-stroke;stroke:context-stroke;stroke-width:1.0pt;"
         d="M 0.0,0.0 L 5.0,-5.0 L -12.5,0.0 L 5.0,5.0 L 0.0,0.0 z "
         id="path21896" />
    </marker>
    <marker
       style="overflow:visible;"
       id="Arrow1Lend"
       refX="0.0"
       refY="0.0"
       orient="auto"
       inkscape:stockid="Arrow1Lend"
       inkscape:isstock="true">
      <path
         transform="scale(0.8) rotate(180) translate(12.5,0)"
         style="fill-rule:evenodd;fill:context-stroke;stroke:context-stroke;stroke-width:1.0pt;"
         d="M 0.0,0.0 L 5.0,-5.0 L -12.5,0.0 L 5.0,5.0 L 0.0,0.0 z "
         id="path21631" />
    </marker>
    <clipPath
       id="clip89">
      <rect
         y="0"
         x="0"
         width="18"
         height="19"
         id="rect4864" />
    </clipPath>
    <clipPath
       id="clip90">
      <path
         inkscape:connector-curvature="0"
         d="m 0.898438,0.128906 h 16.25 v 17.882813 h -16.25 z m 0,0"
         id="path4861" />
    </clipPath>
    <mask
       id="mask44">
      <g
         style="filter:url(#alpha)"
         id="g4858"
         transform="matrix(0.26458333,0,0,0.26458333,89.358789,128.57765)">
        <rect
           x="0"
           y="0"
           width="3052.8701"
           height="3351.5"
           style="fill:#000000;fill-opacity:0.14999402;stroke:none"
           id="rect4856" />
      </g>
    </mask>
    <filter
       id="alpha"
       filterUnits="objectBoundingBox"
       x="0"
       y="0"
       width="1"
       height="1">
      <feColorMatrix
         type="matrix"
         in="SourceGraphic"
         values="0 0 0 0 1 0 0 0 0 1 0 0 0 0 1 0 0 0 1 0"
         id="feColorMatrix4149" />
    </filter>
    <clipPath
       id="clipPath17821">
      <rect
         y="0"
         x="0"
         width="18"
         height="19"
         id="rect17819" />
    </clipPath>
    <clipPath
       id="clipPath17825">
      <path
         inkscape:connector-curvature="0"
         d="m 0.898438,0.128906 h 16.25 v 17.882813 h -16.25 z m 0,0"
         id="path17823" />
    </clipPath>
    <clipPath
       id="clip87">
      <rect
         y="0"
         x="0"
         width="24"
         height="26"
         id="rect4848" />
    </clipPath>
    <clipPath
       id="clip88">
      <path
         inkscape:connector-curvature="0"
         d="m 0.683594,0.921875 h 22.679687 v 24.9375 H 0.683594 Z m 0,0"
         id="path4845" />
    </clipPath>
    <mask
       id="mask43">
      <g
         style="filter:url(#alpha)"
         id="g4842"
         transform="matrix(0.26458333,0,0,0.26458333,89.358789,128.57765)">
        <rect
           x="0"
           y="0"
           width="3052.8701"
           height="3351.5"
           style="fill:#000000;fill-opacity:0.14999402;stroke:none"
           id="rect4840" />
      </g>
    </mask>
    <filter
       id="filter17836"
       filterUnits="objectBoundingBox"
       x="0"
       y="0"
       width="1"
       height="1">
      <feColorMatrix
         type="matrix"
         in="SourceGraphic"
         values="0 0 0 0 1 0 0 0 0 1 0 0 0 0 1 0 0 0 1 0"
         id="feColorMatrix17834" />
    </filter>
    <clipPath
       id="clipPath17840">
      <rect
         y="0"
         x="0"
         width="24"
         height="26"
         id="rect17838" />
    </clipPath>
    <clipPath
       id="clipPath17844">
      <path
         inkscape:connector-curvature="0"
         d="m 0.683594,0.921875 h 22.679687 v 24.9375 H 0.683594 Z m 0,0"
         id="path17842" />
    </clipPath>
  </defs>
  <sodipodi:namedview
     id="base"
     pagecolor="#ffffff"
     bordercolor="#666666"
     borderopacity="1.0"
     inkscape:pageopacity="0.0"
     inkscape:pageshadow="2"
     inkscape:zoom="2.8"
     inkscape:cx="-6.25"
     inkscape:cy="295.17857"
     inkscape:document-units="mm"
     inkscape:current-layer="layer2"
     showgrid="false"
     units="mm"
     inkscape:snap-bbox="true"
     inkscape:snap-page="true"
     inkscape:bbox-nodes="false"
     inkscape:snap-bbox-edge-midpoints="false"
     inkscape:window-width="1920"
     inkscape:window-height="1027"
     inkscape:window-x="1912"
     inkscape:window-y="-8"
     inkscape:window-maximized="1"
     inkscape:snap-bbox-midpoints="true"
     inkscape:snap-nodes="false"
     inkscape:pagecheckerboard="0" />
  <metadata
     id="metadata5">
    <rdf:RDF>
      <cc:Work
         rdf:about="">
        <dc:format>image/svg+xml</dc:format>
        <dc:type
           rdf:resource="http://purl.org/dc/dcmitype/StillImage" />
        <dc:title />
      </cc:Work>
    </rdf:RDF>
  </metadata>
  <g
     inkscape:label="Layer 1"
     inkscape:groupmode="layer"
     id="layer1"
     transform="translate(0,-168.49998)"
     style="display:inline"
     sodipodi:insensitive="true">
    <rect
       style="display:inline;opacity:1;vector-effect:none;fill:#e6e6e6;fill-opacity:1;fill-rule:evenodd;stroke:none;stroke-width:0.649358;stroke-linecap:butt;stroke-linejoin:miter;stroke-miterlimit:4;stroke-dasharray:none;stroke-dashoffset:0;stroke-opacity:1;paint-order:normal"
       id="rect420"
       width="30.48"
       height="128.5"
       x="5.9211732e-17"
       y="168.49997" />
    <g
       aria-label="Infinight"
       id="text7529"
       style="font-size:6.02495px;line-height:1.25;display:inline;stroke-width:0.150624"
       transform="translate(0,172.49969)">
      <path
         d="M 4.7056434,7.5702624 H 2.9758237 V 7.1230982 H 3.5494884 V 3.6369821 H 2.9758237 V 3.1898178 H 4.7056434 V 3.6369821 H 4.1319787 v 3.4861161 h 0.5736647 z"
         id="path20202" />
      <path
         d="M 8.4006322,7.5702624 H 7.8475606 V 5.699233 q 0,-0.226524 -0.026477,-0.4236293 Q 7.794607,5.0755566 7.7240021,4.9637655 7.6504553,4.840207 7.5121874,4.7813695 7.3739195,4.7195903 7.1532793,4.7195903 q -0.226524,0 -0.4736411,0.111791 Q 6.4325211,4.9431724 6.2059971,5.1167427 V 7.5702624 H 5.6529255 V 4.2841935 H 6.2059971 V 4.6489854 Q 6.4648817,4.4342289 6.7414175,4.3136122 7.0179532,4.1929955 7.3091984,4.1929955 q 0.5324785,0 0.8119561,0.3206639 0.2794777,0.3206638 0.2794777,0.9237472 z"
         id="path20204" />
      <path
         d="m 11.233653,3.5281329 h -0.02942 q -0.0912,-0.026477 -0.238291,-0.052954 -0.147094,-0.029419 -0.258885,-0.029419 -0.355966,0 -0.517769,0.158861 -0.158861,0.1559191 -0.158861,0.5677809 v 0.1117911 h 0.997294 V 4.749009 H 10.048079 V 7.5702624 H 9.4950078 V 4.749009 H 9.1213903 V 4.2841935 H 9.4950078 V 4.1753443 q 0,-0.5854322 0.2912451,-0.8972704 0.2912451,-0.3147801 0.8413751,-0.3147801 0.185338,0 0.332431,0.017651 0.150035,0.017651 0.273594,0.041186 z"
         id="path20206" />
      <path
         d="M 12.177994,3.7340638 H 11.554317 V 3.1603991 h 0.623677 z m -0.0353,3.8361986 H 11.58962 V 4.2841935 h 0.553071 z"
         id="path20208" />
      <path
         d="M 15.984773,7.5702624 H 15.431702 V 5.699233 q 0,-0.226524 -0.02648,-0.4236293 -0.02648,-0.2000471 -0.09708,-0.3118382 -0.07355,-0.1235585 -0.211814,-0.182396 -0.138268,-0.061779 -0.358908,-0.061779 -0.226524,0 -0.473642,0.111791 -0.247117,0.1117911 -0.473641,0.2853614 v 2.4535195 h -0.55307 V 4.2841935 h 0.553071 v 0.3647919 q 0.258885,-0.2147565 0.535421,-0.3353732 0.276536,-0.1206167 0.567781,-0.1206167 0.532478,0 0.811956,0.3206639 0.279477,0.3206638 0.279477,0.9237472 z"
         id="path20210" />
      <path
         d="M 17.643989,3.7340638 H 17.020312 V 3.1603991 h 0.623677 z m -0.0353,3.8361986 H 17.055615 V 4.2841935 h 0.553071 z"
         id="path20212" />
      <path
         d="m 21.368396,7.1966449 q 0,0.8354911 -0.379501,1.2267599 -0.379502,0.3912687 -1.167923,0.3912687 -0.261826,0 -0.511885,-0.038244 Q 19.06197,8.7411265 18.820736,8.673464 V 8.108625 h 0.02942 q 0.135326,0.052954 0.429513,0.1294423 0.294187,0.07943 0.588374,0.07943 0.28242,0 0.467758,-0.067663 0.185337,-0.067663 0.288303,-0.1882797 0.102965,-0.1147329 0.147093,-0.2765357 0.04413,-0.1618029 0.04413,-0.3618501 V 7.1230982 q -0.250059,0.2000471 -0.479524,0.3000707 -0.226524,0.097082 -0.579549,0.097082 -0.588374,0 -0.935515,-0.4236293 -0.344198,-0.4265711 -0.344198,-1.200283 0,-0.4236293 0.117674,-0.7295838 0.120617,-0.3088963 0.326548,-0.5324785 0.191222,-0.2088727 0.464815,-0.3236057 0.273594,-0.1176748 0.544246,-0.1176748 0.285362,0 0.476583,0.058837 0.194164,0.055896 0.40892,0.1735704 l 0.0353,-0.1412098 h 0.517769 z M 20.815324,6.6671083 V 4.8755094 q -0.22064,-0.1000236 -0.411861,-0.1412098 -0.18828,-0.044128 -0.37656,-0.044128 -0.45599,0 -0.717816,0.3059545 -0.261827,0.3059545 -0.261827,0.8884447 0,0.5530716 0.194164,0.838433 0.194163,0.2853614 0.644269,0.2853614 0.241234,0 0.482467,-0.091198 0.244175,-0.09414 0.447164,-0.2500589 z"
         id="path20214" />
      <path
         d="M 25.204595,7.5702624 H 24.651524 V 5.699233 q 0,-0.226524 -0.02648,-0.4236293 -0.02648,-0.2000471 -0.09708,-0.3118382 -0.07355,-0.1235585 -0.211814,-0.182396 -0.138268,-0.061779 -0.358909,-0.061779 -0.226524,0 -0.473641,0.111791 -0.247117,0.1117911 -0.473641,0.2853614 v 2.4535195 h -0.55307 V 2.9927125 h 0.553071 v 1.6562729 q 0.258885,-0.2147565 0.535421,-0.3353732 0.276535,-0.1206167 0.567781,-0.1206167 0.532478,0 0.811956,0.3206639 0.279477,0.3206638 0.279477,0.9237472 z"
         id="path20216" />
      <path
         d="m 27.975837,7.5408437 q -0.155919,0.041186 -0.341257,0.067663 -0.182395,0.026477 -0.326547,0.026477 -0.50306,0 -0.764886,-0.2706521 Q 26.28132,7.0936795 26.28132,6.4964798 V 4.749009 H 25.907703 V 4.2841935 H 26.28132 V 3.3398532 h 0.553072 v 0.9443403 h 1.141445 V 4.749009 h -1.141445 v 1.4974119 q 0,0.2588845 0.01177,0.4059781 0.01177,0.1441516 0.08237,0.270652 0.06472,0.1176748 0.176512,0.1735703 0.114733,0.052954 0.347141,0.052954 0.135326,0 0.282419,-0.038244 0.147094,-0.041186 0.211815,-0.067663 h 0.02942 z"
         id="path20218" />
    </g>
    <g
       aria-label="sainsay"
       transform="translate(0,164.49998)"
       id="text16429"
       style="font-size:4.70974px;line-height:1.25;display:inline;stroke-width:0.117744">
      <path
         d="m 8.6236776,125.17325 q 0,0.35185 -0.2920591,0.57722 -0.2897594,0.22537 -0.7933888,0.22537 -0.2851601,0 -0.5243265,-0.0667 -0.2368669,-0.069 -0.3978443,-0.14948 v -0.48523 h 0.022997 q 0.2046713,0.15408 0.4553362,0.24606 0.2506649,0.0897 0.4806326,0.0897 0.2851601,0 0.4461375,-0.092 0.1609775,-0.092 0.1609775,-0.28976 0,-0.15178 -0.087388,-0.22997 -0.087388,-0.0782 -0.3357529,-0.13338 -0.091987,-0.0207 -0.2414662,-0.0483 -0.1471794,-0.0276 -0.2690623,-0.0598 -0.3380527,-0.0897 -0.4806327,-0.26216 -0.1402803,-0.17478 -0.1402803,-0.42774 0,-0.15868 0.064391,-0.29896 0.066691,-0.14028 0.2000719,-0.25066 0.128782,-0.10809 0.3265543,-0.17018 0.2000719,-0.0644 0.4461375,-0.0644 0.2299678,0 0.4645349,0.0575 0.2368668,0.0552 0.3932449,0.13568 v 0.46224 H 8.499495 q -0.1655768,-0.12189 -0.4024436,-0.20467 -0.2368668,-0.0851 -0.4645349,-0.0851 -0.2368668,0 -0.400144,0.092 -0.1632771,0.0897 -0.1632771,0.26907 0,0.15867 0.098886,0.23916 0.096586,0.0805 0.3127561,0.13108 0.1195833,0.0276 0.2667627,0.0552 0.149479,0.0276 0.2483652,0.0506 0.3012578,0.069 0.4645349,0.23687 0.1632771,0.17017 0.1632771,0.45073 z"
         id="path20269" />
      <path
         d="m 11.238411,125.91375 h -0.430039 v -0.27366 q -0.05749,0.0391 -0.156378,0.11038 -0.09659,0.069 -0.188574,0.11039 -0.108085,0.0529 -0.248365,0.0874 -0.140281,0.0368 -0.3288542,0.0368 -0.3472513,0 -0.5887175,-0.22997 -0.2414661,-0.22997 -0.2414661,-0.58642 0,-0.29205 0.1241826,-0.47143 0.1264822,-0.18167 0.3587497,-0.28516 0.2345671,-0.10349 0.5634215,-0.14028 0.328853,-0.0368 0.706001,-0.0552 v -0.0667 q 0,-0.14718 -0.05289,-0.24377 -0.05059,-0.0966 -0.147179,-0.15178 -0.09199,-0.0529 -0.220769,-0.0713 -0.128782,-0.0184 -0.269063,-0.0184 -0.1701759,0 -0.3794465,0.046 -0.2092707,0.0437 -0.4323395,0.12878 H 9.283688 v -0.43924 q 0.1264822,-0.0345 0.3656487,-0.0759 0.2391665,-0.0414 0.4714343,-0.0414 0.271362,0 0.471434,0.046 0.202372,0.0437 0.349551,0.15178 0.14488,0.10579 0.220769,0.27366 0.07589,0.16788 0.07589,0.41624 z m -0.430039,-0.63241 v -0.7152 q -0.197773,0.0115 -0.466835,0.0345 -0.266763,0.023 -0.4231407,0.0667 -0.1862739,0.0529 -0.3012578,0.16558 -0.1149838,0.11039 -0.1149838,0.30586 0,0.22077 0.1333813,0.33345 0.1333813,0.11039 0.407043,0.11039 0.227668,0 0.416242,-0.0874 0.188573,-0.0897 0.349551,-0.21387 z"
         id="path20271" />
      <path
         d="m 12.53543,122.91497 h -0.487532 v -0.44844 h 0.487532 z m -0.0276,2.99878 h -0.43234 v -2.56874 h 0.43234 z"
         id="path20273" />
      <path
         d="m 15.511213,125.91375 h -0.43234 v -1.4626 q 0,-0.17707 -0.0207,-0.33115 -0.0207,-0.15638 -0.07589,-0.24376 -0.05749,-0.0966 -0.165577,-0.14258 -0.108085,-0.0483 -0.280561,-0.0483 -0.177075,0 -0.370248,0.0874 -0.193173,0.0874 -0.370248,0.22307 v 1.91793 H 13.36331 v -2.56874 h 0.432339 v 0.28516 q 0.202372,-0.16788 0.418542,-0.26216 0.216169,-0.0943 0.443837,-0.0943 0.416242,0 0.634711,0.25066 0.21847,0.25067 0.21847,0.7221 z"
         id="path20275" />
      <path
         d="m 18.178839,125.17325 q 0,0.35185 -0.292059,0.57722 -0.289759,0.22537 -0.793389,0.22537 -0.28516,0 -0.524326,-0.0667 -0.236867,-0.069 -0.397845,-0.14948 v -0.48523 h 0.023 q 0.204671,0.15408 0.455336,0.24606 0.250665,0.0897 0.480633,0.0897 0.28516,0 0.446138,-0.092 0.160977,-0.092 0.160977,-0.28976 0,-0.15178 -0.08739,-0.22997 -0.08739,-0.0782 -0.335753,-0.13338 -0.09199,-0.0207 -0.241466,-0.0483 -0.147179,-0.0276 -0.269062,-0.0598 -0.338053,-0.0897 -0.480633,-0.26216 -0.14028,-0.17478 -0.14028,-0.42774 0,-0.15868 0.06439,-0.29896 0.06669,-0.14028 0.200072,-0.25066 0.128782,-0.10809 0.326554,-0.17018 0.200072,-0.0644 0.446137,-0.0644 0.229968,0 0.464535,0.0575 0.236867,0.0552 0.393245,0.13568 v 0.46224 h -0.023 q -0.165576,-0.12189 -0.402443,-0.20467 -0.236867,-0.0851 -0.464535,-0.0851 -0.236867,0 -0.400144,0.092 -0.163277,0.0897 -0.163277,0.26907 0,0.15867 0.09889,0.23916 0.09659,0.0805 0.312756,0.13108 0.119583,0.0276 0.266763,0.0552 0.149479,0.0276 0.248365,0.0506 0.301258,0.069 0.464535,0.23687 0.163277,0.17017 0.163277,0.45073 z"
         id="path20277" />
      <path
         d="m 20.793573,125.91375 h -0.43004 v -0.27366 q -0.05749,0.0391 -0.156378,0.11038 -0.09659,0.069 -0.188574,0.11039 -0.108084,0.0529 -0.248365,0.0874 -0.14028,0.0368 -0.328854,0.0368 -0.347251,0 -0.588717,-0.22997 -0.241466,-0.22997 -0.241466,-0.58642 0,-0.29205 0.124182,-0.47143 0.126483,-0.18167 0.35875,-0.28516 0.234567,-0.10349 0.563421,-0.14028 0.328854,-0.0368 0.706001,-0.0552 v -0.0667 q 0,-0.14718 -0.05289,-0.24377 -0.05059,-0.0966 -0.14718,-0.15178 -0.09199,-0.0529 -0.220769,-0.0713 -0.128782,-0.0184 -0.269062,-0.0184 -0.170176,0 -0.379447,0.046 -0.209271,0.0437 -0.432339,0.12878 h -0.023 v -0.43924 q 0.126482,-0.0345 0.365649,-0.0759 0.239166,-0.0414 0.471433,-0.0414 0.271362,0 0.471434,0.046 0.202372,0.0437 0.349551,0.15178 0.14488,0.10579 0.22077,0.27366 0.07589,0.16788 0.07589,0.41624 z m -0.43004,-0.63241 v -0.7152 q -0.197772,0.0115 -0.466834,0.0345 -0.266763,0.023 -0.423141,0.0667 -0.186274,0.0529 -0.301258,0.16558 -0.114984,0.11039 -0.114984,0.30586 0,0.22077 0.133381,0.33345 0.133382,0.11039 0.407043,0.11039 0.227669,0 0.416242,-0.0874 0.188574,-0.0897 0.349551,-0.21387 z"
         id="path20279" />
      <path
         d="m 23.81075,123.34501 -1.49939,3.51621 h -0.462235 l 0.478333,-1.07165 -1.023356,-2.44456 h 0.469134 l 0.788789,1.90413 0.795689,-1.90413 z"
         id="path20281" />
    </g>
    <path
       style="fill:none;stroke:#000000;stroke-width:0.270939;stroke-linecap:butt;stroke-linejoin:miter;stroke-miterlimit:4;stroke-dasharray:none;stroke-opacity:1;marker-end:url(#Arrow1Mend)"
       d="m 6.7107439,258.80373 c 6.9037021,-4.68181 13.7422271,-2.06379 15.9651891,-0.97901 0.48348,0.23594 0.748628,0.39934 0.748628,0.39934"
       id="path21626"
       sodipodi:nodetypes="csc" />
    <path
       style="fill:none;stroke:#000000;stroke-width:0.270939;stroke-linecap:butt;stroke-linejoin:miter;stroke-miterlimit:4;stroke-dasharray:none;stroke-opacity:1;marker-end:url(#Arrow1Mend)"
       d="m 24.559027,283.30451 c -8.405214,5.70008 -16.7138171,0.57967 -16.7138171,0.57967"
       id="path21994" />
    <g
       aria-label="in"
       id="text23538"
       style="font-size:4.77371px;line-height:1.25;stroke-width:0.119343"
       transform="translate(0,4.8191964)">
      <path
         d="M 5.9342026,248.52073 H 5.4400491 v -0.45453 h 0.4941535 z m -0.027971,3.03951 H 5.46802 v -2.60363 h 0.4382117 z"
         id="path8145" />
      <path
         d="M 8.950404,251.56024 H 8.5121924 v -1.48246 q 0,-0.17948 -0.020978,-0.33565 -0.020978,-0.1585 -0.07692,-0.24708 -0.058273,-0.0979 -0.1678258,-0.14451 -0.1095529,-0.0489 -0.2843714,-0.0489 -0.1794803,0 -0.3752769,0.0886 -0.1957967,0.0886 -0.375277,0.2261 v 1.94398 h -0.438212 v -2.60363 H 7.211543 v 0.28904 q 0.2051203,-0.17016 0.4242261,-0.26573 0.2191058,-0.0956 0.4498662,-0.0956 0.4218953,0 0.643332,0.25407 0.2214367,0.25407 0.2214367,0.73191 z"
         id="path8147" />
    </g>
    <g
       aria-label="out"
       id="text25366"
       style="font-size:4.78681px;line-height:1.25;stroke-width:0.11967"
       transform="translate(0,4.8191964)">
      <path
         d="m 22.990273,250.15478 q 0,0.63809 -0.327223,1.00738 -0.327224,0.3693 -0.876491,0.3693 -0.553943,0 -0.881166,-0.3693 -0.324886,-0.36929 -0.324886,-1.00738 0,-0.63808 0.324886,-1.00738 0.327223,-0.37163 0.881166,-0.37163 0.549267,0 0.876491,0.37163 0.327223,0.3693 0.327223,1.00738 z m -0.453438,0 q 0,-0.5072 -0.198671,-0.75261 -0.198672,-0.24776 -0.551605,-0.24776 -0.357609,0 -0.55628,0.24776 -0.196334,0.24541 -0.196334,0.75261 0,0.49084 0.198671,0.7456 0.198672,0.25243 0.553943,0.25243 0.350596,0 0.549267,-0.25009 0.201009,-0.25243 0.201009,-0.74794 z"
         id="path8138" />
      <path
         d="m 25.834779,251.459 h -0.439414 v -0.28983 q -0.222045,0.1753 -0.425391,0.26879 -0.203346,0.0935 -0.448763,0.0935 -0.411366,0 -0.640423,-0.2501 -0.229056,-0.25243 -0.229056,-0.73859 v -1.69455 h 0.439414 v 1.48653 q 0,0.19868 0.0187,0.34125 0.0187,0.14024 0.07947,0.24074 0.06311,0.10285 0.163612,0.14959 0.100504,0.0468 0.292163,0.0468 0.170624,0 0.371633,-0.0888 0.203346,-0.0888 0.378644,-0.22672 v -1.94932 h 0.439414 z"
         id="path8140" />
      <path
         d="m 28.055223,251.43563 q -0.123877,0.0327 -0.271128,0.0538 -0.144913,0.021 -0.259441,0.021 -0.39968,0 -0.607701,-0.21503 -0.20802,-0.21503 -0.20802,-0.68951 v -1.38836 h -0.296838 v -0.3693 h 0.296838 v -0.75027 h 0.439414 v 0.75027 h 0.906876 v 0.3693 h -0.906876 v 1.18969 q 0,0.20568 0.0093,0.32255 0.0093,0.11453 0.06544,0.21503 0.05142,0.0935 0.140239,0.1379 0.09116,0.0421 0.275802,0.0421 0.107516,0 0.224382,-0.0304 0.116865,-0.0327 0.168286,-0.0538 h 0.02337 z"
         id="path8142" />
    </g>
    <g
       aria-label="out"
       id="text27910"
       style="font-size:4.78681px;line-height:1.25;stroke-width:0.11967"
       transform="translate(0,-23.056548)">
      <path
         d="m 22.990273,208.10493 q 0,0.63809 -0.327223,1.00738 -0.327224,0.3693 -0.876491,0.3693 -0.553943,0 -0.881166,-0.3693 -0.324886,-0.36929 -0.324886,-1.00738 0,-0.63809 0.324886,-1.00738 0.327223,-0.37163 0.881166,-0.37163 0.549267,0 0.876491,0.37163 0.327223,0.36929 0.327223,1.00738 z m -0.453438,0 q 0,-0.5072 -0.198671,-0.75261 -0.198672,-0.24776 -0.551605,-0.24776 -0.357609,0 -0.55628,0.24776 -0.196334,0.24541 -0.196334,0.75261 0,0.49084 0.198671,0.7456 0.198672,0.25243 0.553943,0.25243 0.350596,0 0.549267,-0.25009 0.201009,-0.25243 0.201009,-0.74794 z"
         id="path8131" />
      <path
         d="m 25.834779,209.40915 h -0.439414 v -0.28983 q -0.222045,0.1753 -0.425391,0.26879 -0.203346,0.0935 -0.448763,0.0935 -0.411366,0 -0.640423,-0.2501 -0.229056,-0.25243 -0.229056,-0.73859 v -1.69455 h 0.439414 v 1.48653 q 0,0.19867 0.0187,0.34125 0.0187,0.14024 0.07947,0.24074 0.06311,0.10284 0.163612,0.14959 0.100504,0.0468 0.292163,0.0468 0.170624,0 0.371633,-0.0888 0.203346,-0.0888 0.378644,-0.22672 v -1.94932 h 0.439414 z"
         id="path8133" />
      <path
         d="m 28.055223,209.38578 q -0.123877,0.0327 -0.271128,0.0537 -0.144913,0.021 -0.259441,0.021 -0.39968,0 -0.607701,-0.21503 -0.20802,-0.21503 -0.20802,-0.68951 v -1.38836 h -0.296838 v -0.3693 h 0.296838 v -0.75027 h 0.439414 v 0.75027 h 0.906876 v 0.3693 h -0.906876 v 1.18969 q 0,0.20568 0.0093,0.32255 0.0093,0.11453 0.06544,0.21503 0.05142,0.0935 0.140239,0.1379 0.09116,0.0421 0.275802,0.0421 0.107516,0 0.224382,-0.0304 0.116865,-0.0327 0.168286,-0.0538 h 0.02337 z"
         id="path8135" />
    </g>
    <g
       aria-label="in"
       id="text27914"
       style="font-size:4.77371px;line-height:1.25;stroke-width:0.119343"
       transform="translate(0,-23.529018)">
      <path
         d="M 5.9342026,206.65986 H 5.4400491 v -0.45453 h 0.4941535 z m -0.027971,3.03951 H 5.46802 v -2.60363 h 0.4382117 z"
         id="path8126" />
      <path
         d="M 8.950404,209.69937 H 8.5121924 v -1.48246 q 0,-0.17948 -0.020978,-0.33565 -0.020978,-0.1585 -0.07692,-0.24708 -0.058273,-0.0979 -0.1678258,-0.14451 -0.1095529,-0.0489 -0.2843714,-0.0489 -0.1794803,0 -0.3752769,0.0886 -0.1957967,0.0886 -0.375277,0.2261 v 1.94398 h -0.438212 v -2.60363 H 7.211543 v 0.28903 q 0.2051203,-0.17015 0.4242261,-0.26572 0.2191058,-0.0956 0.4498662,-0.0956 0.4218953,0 0.643332,0.25407 0.2214367,0.25407 0.2214367,0.73191 z"
         id="path8128" />
    </g>
    <g
       aria-label="1"
       transform="matrix(0.95835754,0,0,1.0434519,-0.20029817,13.796131)"
       id="text1521"
       style="font-size:7.53565px;line-height:1.25;stroke-width:0.188392">
      <path
         d="m 17.775714,183.48906 h -2.96569 v -0.55929 h 1.14065 v -3.67215 h -1.14065 v -0.50042 q 0.231809,0 0.496734,-0.0368 0.264925,-0.0405 0.401068,-0.11407 0.169257,-0.092 0.264925,-0.23181 0.09935,-0.1435 0.114065,-0.38267 h 0.570325 v 4.93791 h 1.118573 z"
         id="path8120" />
    </g>
    <g
       aria-label="2"
       transform="matrix(0.95835754,0,0,1.0434519,-0.20021643,13.796131)"
       id="text4889"
       style="font-size:7.53565px;line-height:1.25;stroke-width:0.188392">
      <path
         d="m 18.187073,195.17119 h -3.708952 v -0.76902 q 0.386349,-0.33116 0.772698,-0.66231 0.390029,-0.33116 0.724865,-0.65864 0.706467,-0.68439 0.967713,-1.08545 0.261245,-0.40475 0.261245,-0.87205 0,-0.42682 -0.283323,-0.66599 -0.279643,-0.24285 -0.783737,-0.24285 -0.334836,0 -0.724864,0.11774 -0.390029,0.11775 -0.76166,0.3606 h -0.0368 v -0.7727 q 0.261245,-0.12878 0.695428,-0.23549 0.437863,-0.10671 0.846289,-0.10671 0.842609,0 1.320946,0.40843 0.478338,0.40475 0.478338,1.10018 0,0.31275 -0.08095,0.58504 -0.07727,0.2686 -0.231809,0.51145 -0.143501,0.22813 -0.338516,0.4489 -0.191335,0.22077 -0.467298,0.48938 -0.393709,0.38635 -0.813174,0.75062 -0.419464,0.36059 -0.783737,0.66967 h 2.947293 z"
         id="path8123" />
    </g>
    <g
       aria-label="1"
       transform="matrix(0.95835754,0,0,1.0434519,-0.20028532,4.8191964)"
       id="text8114"
       style="font-size:7.53565px;line-height:1.25;stroke-width:0.188392">
      <path
         d="m 17.972914,252.31396 h -2.965691 v -0.55928 h 1.14065 v -3.67216 h -1.14065 v -0.50041 q 0.23181,0 0.496735,-0.0368 0.264925,-0.0405 0.401067,-0.11406 0.169258,-0.092 0.264926,-0.23181 0.09935,-0.1435 0.114065,-0.38267 h 0.570325 v 4.93791 h 1.118573 z"
         id="path8153" />
    </g>
    <g
       aria-label="2"
       transform="matrix(0.95835754,0,0,1.0434519,-0.20020357,4.8191964)"
       id="text8118"
       style="font-size:7.53565px;line-height:1.25;stroke-width:0.188392">
      <path
         d="M 18.384273,263.99609 H 14.67532 v -0.76902 q 0.38635,-0.33115 0.772699,-0.66231 0.390029,-0.33115 0.724865,-0.65863 0.706467,-0.68439 0.967712,-1.08546 0.261246,-0.40475 0.261246,-0.87204 0,-0.42683 -0.283323,-0.666 -0.279643,-0.24284 -0.783737,-0.24284 -0.334836,0 -0.724864,0.11774 -0.390029,0.11774 -0.76166,0.36059 h -0.0368 v -0.7727 q 0.261246,-0.12878 0.695429,-0.23549 0.437863,-0.1067 0.846289,-0.1067 0.842609,0 1.320946,0.40843 0.478337,0.40474 0.478337,1.10017 0,0.31276 -0.08095,0.58504 -0.07727,0.26861 -0.231809,0.51146 -0.143502,0.22813 -0.338516,0.4489 -0.191335,0.22077 -0.467299,0.48937 -0.393708,0.38635 -0.813173,0.75062 -0.419465,0.3606 -0.783737,0.66968 h 2.947293 z"
         id="path8150" />
    </g>
    <g
       aria-label="mix"
       id="text11964"
       style="font-size:5.93563px;line-height:1.25;stroke-width:0.148391"
       transform="matrix(0.67374445,0,0,0.67374445,4.9460764,33.512827)">
      <path
         d="M 15.318563,236.81918 H 14.77369 v -1.84329 q 0,-0.20867 -0.02029,-0.40286 -0.01739,-0.19418 -0.07825,-0.31011 -0.06666,-0.12462 -0.191285,-0.18839 -0.124625,-0.0638 -0.359384,-0.0638 -0.228962,0 -0.457925,0.11593 -0.228962,0.11303 -0.457924,0.28983 0.0087,0.0667 0.01449,0.1565 0.0058,0.087 0.0058,0.1739 v 2.07225 H 12.68405 v -1.84329 q 0,-0.21447 -0.02029,-0.40575 -0.01739,-0.19419 -0.07825,-0.31012 -0.06666,-0.12462 -0.191284,-0.18549 -0.124626,-0.0638 -0.359384,-0.0638 -0.223166,0 -0.44923,0.11014 -0.223166,0.11013 -0.446332,0.28113 v 2.41714 h -0.544872 v -3.23735 h 0.544872 v 0.35938 q 0.255047,-0.21157 0.507195,-0.3304 0.255047,-0.11883 0.541974,-0.11883 0.330402,0 0.559364,0.13912 0.23186,0.13912 0.344892,0.38547 0.330402,-0.27823 0.602838,-0.39996 0.272436,-0.12463 0.582549,-0.12463 0.53328,0 0.785428,0.32461 0.255047,0.32171 0.255047,0.90136 z"
         id="path17303" />
      <path
         d="m 16.953179,233.03986 h -0.61443 v -0.56516 h 0.61443 z m -0.03478,3.77932 h -0.544872 v -3.23735 H 16.9184 Z"
         id="path17305" />
      <path
         d="m 20.799166,236.81918 h -0.686887 l -0.918747,-1.24335 -0.924544,1.24335 H 17.63427 l 1.26364,-1.61433 -1.252047,-1.62302 h 0.686887 l 0.912951,1.22306 0.915849,-1.22306 h 0.637616 l -1.272335,1.59404 z"
         id="path17307" />
    </g>
    <rect
       style="fill:#616161;fill-opacity:1;fill-rule:evenodd;stroke:none;stroke-width:0.265;stroke-linecap:round;stroke-linejoin:round;stroke-miterlimit:4;stroke-dasharray:none;paint-order:normal"
       id="rect14688"
       width="11.90625"
       height="22.584076"
       x="18.237352"
       y="196.84819"
       ry="1.984375" />
    <rect
       style="fill:#626262;fill-opacity:1;fill-rule:evenodd;stroke:none;stroke-width:0.265;stroke-linecap:round;stroke-linejoin:round;stroke-miterlimit:4;stroke-dasharray:none;paint-order:normal"
       id="rect17160"
       width="11.90625"
       height="22.584076"
       x="18.237352"
       y="260.0647"
       ry="1.984375" />
    <path
       style="fill:none;stroke:#000000;stroke-width:0.264583px;stroke-linecap:butt;stroke-linejoin:miter;stroke-opacity:1"
       d="M 2.9293156,181.82364 H 28.064732"
       id="path18667" />
    <path
       style="fill:none;stroke:#000000;stroke-width:0.264583px;stroke-linecap:butt;stroke-linejoin:miter;stroke-opacity:1"
       d="M 2.9293156,220.66069 H 28.064732"
       id="path18749" />
  </g>
  <g
     inkscape:groupmode="layer"
     id="layer2"
     inkscape:label="components"
     style="display:none">
    <circle
       style="display:inline;opacity:1;vector-effect:none;fill:#ff0000;fill-opacity:1;fill-rule:evenodd;stroke:none;stroke-width:1;stroke-linecap:butt;stroke-linejoin:miter;stroke-miterlimit:4;stroke-dasharray:none;stroke-dashoffset:0;stroke-opacity:1;paint-order:normal"
       id="path4954"
       cx="24"
       cy="33.795837"
       r="4"
       inkscape:label="pitch" />
    <circle
       r="4"
       cy="33.795837"
       cx="7"
       id="circle4956"
       style="display:inline;opacity:1;vector-effect:none;fill:#00ff00;fill-opacity:1;fill-rule:evenodd;stroke:none;stroke-width:1;stroke-linecap:butt;stroke-linejoin:miter;stroke-miterlimit:4;stroke-dasharray:none;stroke-dashoffset:0;stroke-opacity:1;paint-order:normal"
       inkscape:label="pitch" />
    <circle
       style="display:inline;opacity:1;vector-effect:none;fill:#0000ff;fill-opacity:1;fill-rule:evenodd;stroke:none;stroke-width:1;stroke-linecap:butt;stroke-linejoin:miter;stroke-miterlimit:4;stroke-dasharray:none;stroke-dashoffset:0;stroke-opacity:1;paint-order:normal"
       id="circle4958"
       cx="7"
       cy="96.819199"
       r="4"
       inkscape:label="sine" />
    <circle
       r="4"
       cy="45.795837"
       cx="7"
       id="circle565"
       style="display:inline;opacity:1;vector-effect:none;fill:#00ff00;fill-opacity:1;fill-rule:evenodd;stroke:none;stroke-width:1;stroke-linecap:butt;stroke-linejoin:miter;stroke-miterlimit:4;stroke-dasharray:none;stroke-dashoffset:0;stroke-opacity:1;paint-order:normal"
       inkscape:label="pitch" />
    <circle
       style="display:inline;opacity:1;vector-effect:none;fill:#ff0000;fill-opacity:1;fill-rule:evenodd;stroke:none;stroke-width:1;stroke-linecap:butt;stroke-linejoin:miter;stroke-miterlimit:4;stroke-dasharray:none;stroke-dashoffset:0;stroke-opacity:1;paint-order:normal"
       id="circle567"
       cx="24"
       cy="45.795837"
       inkscape:label="pitch"
       r="4" />
    <circle
       style="display:inline;opacity:1;vector-effect:none;fill:#0000ff;fill-opacity:1;fill-rule:evenodd;stroke:none;stroke-width:1;stroke-linecap:butt;stroke-linejoin:miter;stroke-miterlimit:4;stroke-dasharray:none;stroke-dashoffset:0;stroke-opacity:1;paint-order:normal"
       id="circle569"
       cx="7"
       cy="108.8192"
       r="4"
       inkscape:label="sine" />
    <circle
       style="display:inline;opacity:1;vector-effect:none;fill:#0000ff;fill-opacity:1;fill-rule:evenodd;stroke:none;stroke-width:1;stroke-linecap:butt;stroke-linejoin:miter;stroke-miterlimit:4;stroke-dasharray:none;stroke-dashoffset:0;stroke-opacity:1;paint-order:normal"
       id="circle571"
       cx="24"
       cy="96.819199"
       r="4"
       inkscape:label="sine" />
    <circle
       style="display:inline;opacity:1;vector-effect:none;fill:#0000ff;fill-opacity:1;fill-rule:evenodd;stroke:none;stroke-width:1;stroke-linecap:butt;stroke-linejoin:miter;stroke-miterlimit:4;stroke-dasharray:none;stroke-dashoffset:0;stroke-opacity:1;paint-order:normal"
       id="circle573"
       cx="24"
       cy="108.8192"
       r="4"
       inkscape:label="sine" />
    <g
       inkscape:label="Layer 1"
       id="layer1-1"
       transform="translate(-85.788964,-89.580569)">
      <path
         inkscape:connector-curvature="0"
         id="path7255"
         d="m 92.788964,127.42922 c -2.235179,0 -4.05281,-1.81762 -4.05281,-4.05282 0,-2.23516 1.817631,-4.05281 4.05281,-4.05281 2.235176,0 4.05281,1.81765 4.05281,4.05281 0,2.2352 -1.817634,4.05282 -4.05281,4.05282"
         style="fill:#e6e6e6;fill-opacity:1;fill-rule:nonzero;stroke:#636663;stroke-width:0.25;stroke-miterlimit:4;stroke-dasharray:none;stroke-opacity:1" />
      <path
         inkscape:connector-curvature="0"
         id="path7261"
         d="m 92.788964,126.29511 c -1.609548,0 -2.918685,-1.30916 -2.918685,-2.91871 0,-1.60954 1.309137,-2.91867 2.918685,-2.91867 1.609549,0 2.918682,1.30913 2.918682,2.91867 0,1.60955 -1.309133,2.91871 -2.918682,2.91871"
         style="fill:#e6e6e6;fill-opacity:1;fill-rule:nonzero;stroke:#636663;stroke-width:0.25;stroke-miterlimit:4;stroke-dasharray:none;stroke-opacity:1" />
      <path
         inkscape:connector-curvature="0"
         id="path7265"
         d="m 94.588681,123.3764 c 0,0.99357 -0.806153,1.79974 -1.799717,1.79974 -0.993567,0 -1.79972,-0.80617 -1.79972,-1.79974 0,-0.99356 0.806153,-1.79969 1.79972,-1.79969 0.993564,0 1.799717,0.80613 1.799717,1.79969"
         style="fill:#000000;fill-opacity:1;fill-rule:nonzero;stroke:none;stroke-width:0.352778" />
    </g>
    <g
       inkscape:label="Layer 1"
       id="g9682"
       transform="translate(-68.788964,-89.580569)">
      <path
         inkscape:connector-curvature="0"
         id="path9676"
         d="m 92.788964,127.42922 c -2.235179,0 -4.05281,-1.81762 -4.05281,-4.05282 0,-2.23516 1.817631,-4.05281 4.05281,-4.05281 2.235176,0 4.05281,1.81765 4.05281,4.05281 0,2.2352 -1.817634,4.05282 -4.05281,4.05282"
         style="fill:#e6e6e6;fill-opacity:1;fill-rule:nonzero;stroke:#636663;stroke-width:0.25;stroke-miterlimit:4;stroke-dasharray:none;stroke-opacity:1" />
      <path
         inkscape:connector-curvature="0"
         id="path9678"
         d="m 92.788964,126.29511 c -1.609548,0 -2.918685,-1.30916 -2.918685,-2.91871 0,-1.60954 1.309137,-2.91867 2.918685,-2.91867 1.609549,0 2.918682,1.30913 2.918682,2.91867 0,1.60955 -1.309133,2.91871 -2.918682,2.91871"
         style="fill:#e6e6e6;fill-opacity:1;fill-rule:nonzero;stroke:#636663;stroke-width:0.25;stroke-miterlimit:4;stroke-dasharray:none;stroke-opacity:1" />
      <path
         inkscape:connector-curvature="0"
         id="path9680"
         d="m 94.588681,123.3764 c 0,0.99357 -0.806153,1.79974 -1.799717,1.79974 -0.993567,0 -1.79972,-0.80617 -1.79972,-1.79974 0,-0.99356 0.806153,-1.79969 1.79972,-1.79969 0.993564,0 1.799717,0.80613 1.799717,1.79969"
         style="fill:#000000;fill-opacity:1;fill-rule:nonzero;stroke:none;stroke-width:0.352778" />
    </g>
    <g
       inkscape:label="Layer 1"
       id="g9690"
       transform="translate(-68.788964,-77.580568)">
      <path
         inkscape:connector-curvature="0"
         id="path9684"
         d="m 92.788964,127.42922 c -2.235179,0 -4.05281,-1.81762 -4.05281,-4.05282 0,-2.23516 1.817631,-4.05281 4.05281,-4.05281 2.235176,0 4.05281,1.81765 4.05281,4.05281 0,2.2352 -1.817634,4.05282 -4.05281,4.05282"
         style="fill:#e6e6e6;fill-opacity:1;fill-rule:nonzero;stroke:#636663;stroke-width:0.25;stroke-miterlimit:4;stroke-dasharray:none;stroke-opacity:1" />
      <path
         inkscape:connector-curvature="0"
         id="path9686"
         d="m 92.788964,126.29511 c -1.609548,0 -2.918685,-1.30916 -2.918685,-2.91871 0,-1.60954 1.309137,-2.91867 2.918685,-2.91867 1.609549,0 2.918682,1.30913 2.918682,2.91867 0,1.60955 -1.309133,2.91871 -2.918682,2.91871"
         style="fill:#e6e6e6;fill-opacity:1;fill-rule:nonzero;stroke:#636663;stroke-width:0.25;stroke-miterlimit:4;stroke-dasharray:none;stroke-opacity:1" />
      <path
         inkscape:connector-curvature="0"
         id="path9688"
         d="m 94.588681,123.3764 c 0,0.99357 -0.806153,1.79974 -1.799717,1.79974 -0.993567,0 -1.79972,-0.80617 -1.79972,-1.79974 0,-0.99356 0.806153,-1.79969 1.79972,-1.79969 0.993564,0 1.799717,0.80613 1.799717,1.79969"
         style="fill:#000000;fill-opacity:1;fill-rule:nonzero;stroke:none;stroke-width:0.352778" />
    </g>
    <g
       inkscape:label="Layer 1"
       id="g9698"
       transform="translate(-85.788964,-77.580568)">
      <path
         inkscape:connector-curvature="0"
         id="path9692"
         d="m 92.788964,127.42922 c -2.235179,0 -4.05281,-1.81762 -4.05281,-4.05282 0,-2.23516 1.817631,-4.05281 4.05281,-4.05281 2.235176,0 4.05281,1.81765 4.05281,4.05281 0,2.2352 -1.817634,4.05282 -4.05281,4.05282"
         style="fill:#e6e6e6;fill-opacity:1;fill-rule:nonzero;stroke:#636663;stroke-width:0.25;stroke-miterlimit:4;stroke-dasharray:none;stroke-opacity:1" />
      <path
         inkscape:connector-curvature="0"
         id="path9694"
         d="m 92.788964,126.29511 c -1.609548,0 -2.918685,-1.30916 -2.918685,-2.91871 0,-1.60954 1.309137,-2.91867 2.918685,-2.91867 1.609549,0 2.918682,1.30913 2.918682,2.91867 0,1.60955 -1.309133,2.91871 -2.918682,2.91871"
         style="fill:#e6e6e6;fill-opacity:1;fill-rule:nonzero;stroke:#636663;stroke-width:0.25;stroke-miterlimit:4;stroke-dasharray:none;stroke-opacity:1" />
      <path
         inkscape:connector-curvature="0"
         id="path9696"
         d="m 94.588681,123.3764 c 0,0.99357 -0.806153,1.79974 -1.799717,1.79974 -0.993567,0 -1.79972,-0.80617 -1.79972,-1.79974 0,-0.99356 0.806153,-1.79969 1.79972,-1.79969 0.993564,0 1.799717,0.80613 1.799717,1.79969"
         style="fill:#000000;fill-opacity:1;fill-rule:nonzero;stroke:none;stroke-width:0.352778" />
    </g>
    <g
       inkscape:label="Layer 1"
       id="g9706"
       transform="translate(-85.788964,-26.557209)">
      <path
         inkscape:connector-curvature="0"
         id="path9700"
         d="m 92.788964,127.42922 c -2.235179,0 -4.05281,-1.81762 -4.05281,-4.05282 0,-2.23516 1.817631,-4.05281 4.05281,-4.05281 2.235176,0 4.05281,1.81765 4.05281,4.05281 0,2.2352 -1.817634,4.05282 -4.05281,4.05282"
         style="fill:#e6e6e6;fill-opacity:1;fill-rule:nonzero;stroke:#636663;stroke-width:0.25;stroke-miterlimit:4;stroke-dasharray:none;stroke-opacity:1" />
      <path
         inkscape:connector-curvature="0"
         id="path9702"
         d="m 92.788964,126.29511 c -1.609548,0 -2.918685,-1.30916 -2.918685,-2.91871 0,-1.60954 1.309137,-2.91867 2.918685,-2.91867 1.609549,0 2.918682,1.30913 2.918682,2.91867 0,1.60955 -1.309133,2.91871 -2.918682,2.91871"
         style="fill:#e6e6e6;fill-opacity:1;fill-rule:nonzero;stroke:#636663;stroke-width:0.25;stroke-miterlimit:4;stroke-dasharray:none;stroke-opacity:1" />
      <path
         inkscape:connector-curvature="0"
         id="path9704"
         d="m 94.588681,123.3764 c 0,0.99357 -0.806153,1.79974 -1.799717,1.79974 -0.993567,0 -1.79972,-0.80617 -1.79972,-1.79974 0,-0.99356 0.806153,-1.79969 1.79972,-1.79969 0.993564,0 1.799717,0.80613 1.799717,1.79969"
         style="fill:#000000;fill-opacity:1;fill-rule:nonzero;stroke:none;stroke-width:0.352778" />
    </g>
    <g
       inkscape:label="Layer 1"
       id="g9714"
       transform="translate(-68.788964,-26.557209)">
      <path
         inkscape:connector-curvature="0"
         id="path9708"
         d="m 92.788964,127.42922 c -2.235179,0 -4.05281,-1.81762 -4.05281,-4.05282 0,-2.23516 1.817631,-4.05281 4.05281,-4.05281 2.235176,0 4.05281,1.81765 4.05281,4.05281 0,2.2352 -1.817634,4.05282 -4.05281,4.05282"
         style="fill:#e6e6e6;fill-opacity:1;fill-rule:nonzero;stroke:#636663;stroke-width:0.25;stroke-miterlimit:4;stroke-dasharray:none;stroke-opacity:1" />
      <path
         inkscape:connector-curvature="0"
         id="path9710"
         d="m 92.788964,126.29511 c -1.609548,0 -2.918685,-1.30916 -2.918685,-2.91871 0,-1.60954 1.309137,-2.91867 2.918685,-2.91867 1.609549,0 2.918682,1.30913 2.918682,2.91867 0,1.60955 -1.309133,2.91871 -2.918682,2.91871"
         style="fill:#e6e6e6;fill-opacity:1;fill-rule:nonzero;stroke:#636663;stroke-width:0.25;stroke-miterlimit:4;stroke-dasharray:none;stroke-opacity:1" />
      <path
         inkscape:connector-curvature="0"
         id="path9712"
         d="m 94.588681,123.3764 c 0,0.99357 -0.806153,1.79974 -1.799717,1.79974 -0.993567,0 -1.79972,-0.80617 -1.79972,-1.79974 0,-0.99356 0.806153,-1.79969 1.79972,-1.79969 0.993564,0 1.799717,0.80613 1.799717,1.79969"
         style="fill:#000000;fill-opacity:1;fill-rule:nonzero;stroke:none;stroke-width:0.352778" />
    </g>
    <g
       inkscape:label="Layer 1"
       id="g9722"
       transform="translate(-68.788964,-14.557209)">
      <path
         inkscape:connector-curvature="0"
         id="path9716"
         d="m 92.788964,127.42922 c -2.235179,0 -4.05281,-1.81762 -4.05281,-4.05282 0,-2.23516 1.817631,-4.05281 4.05281,-4.05281 2.235176,0 4.05281,1.81765 4.05281,4.05281 0,2.2352 -1.817634,4.05282 -4.05281,4.05282"
         style="fill:#e6e6e6;fill-opacity:1;fill-rule:nonzero;stroke:#636663;stroke-width:0.25;stroke-miterlimit:4;stroke-dasharray:none;stroke-opacity:1" />
      <path
         inkscape:connector-curvature="0"
         id="path9718"
         d="m 92.788964,126.29511 c -1.609548,0 -2.918685,-1.30916 -2.918685,-2.91871 0,-1.60954 1.309137,-2.91867 2.918685,-2.91867 1.609549,0 2.918682,1.30913 2.918682,2.91867 0,1.60955 -1.309133,2.91871 -2.918682,2.91871"
         style="fill:#e6e6e6;fill-opacity:1;fill-rule:nonzero;stroke:#636663;stroke-width:0.25;stroke-miterlimit:4;stroke-dasharray:none;stroke-opacity:1" />
      <path
         inkscape:connector-curvature="0"
         id="path9720"
         d="m 94.588681,123.3764 c 0,0.99357 -0.806153,1.79974 -1.799717,1.79974 -0.993567,0 -1.79972,-0.80617 -1.79972,-1.79974 0,-0.99356 0.806153,-1.79969 1.79972,-1.79969 0.993564,0 1.799717,0.80613 1.799717,1.79969"
         style="fill:#000000;fill-opacity:1;fill-rule:nonzero;stroke:none;stroke-width:0.352778" />
    </g>
    <g
       inkscape:label="Layer 1"
       id="g9730"
       transform="translate(-85.788964,-14.557209)">
      <path
         inkscape:connector-curvature="0"
         id="path9724"
         d="m 92.788964,127.42922 c -2.235179,0 -4.05281,-1.81762 -4.05281,-4.05282 0,-2.23516 1.817631,-4.05281 4.05281,-4.05281 2.235176,0 4.05281,1.81765 4.05281,4.05281 0,2.2352 -1.817634,4.05282 -4.05281,4.05282"
         style="fill:#e6e6e6;fill-opacity:1;fill-rule:nonzero;stroke:#636663;stroke-width:0.25;stroke-miterlimit:4;stroke-dasharray:none;stroke-opacity:1" />
      <path
         inkscape:connector-curvature="0"
         id="path9726"
         d="m 92.788964,126.29511 c -1.609548,0 -2.918685,-1.30916 -2.918685,-2.91871 0,-1.60954 1.309137,-2.91867 2.918685,-2.91867 1.609549,0 2.918682,1.30913 2.918682,2.91867 0,1.60955 -1.309133,2.91871 -2.918682,2.91871"
         style="fill:#e6e6e6;fill-opacity:1;fill-rule:nonzero;stroke:#636663;stroke-width:0.25;stroke-miterlimit:4;stroke-dasharray:none;stroke-opacity:1" />
      <path
         inkscape:connector-curvature="0"
         id="path9728"
         d="m 94.588681,123.3764 c 0,0.99357 -0.806153,1.79974 -1.799717,1.79974 -0.993567,0 -1.79972,-0.80617 -1.79972,-1.79974 0,-0.99356 0.806153,-1.79969 1.79972,-1.79969 0.993564,0 1.799717,0.80613 1.799717,1.79969"
         style="fill:#000000;fill-opacity:1;fill-rule:nonzero;stroke:none;stroke-width:0.352778" />
    </g>
    <g
       inkscape:label="Layer 1"
       id="layer1-5"
       transform="translate(-180.19891,-58.387189)"
       style="display:inline">
      <path
         inkscape:connector-curvature="0"
         style="fill:#000000;fill-opacity:1;fill-rule:nonzero;stroke:none;stroke-width:0.352778"
         d="m 183.93691,80.498791 c 0,1.740461 1.40974,3.150196 3.1502,3.150196 1.73909,0 3.14883,-1.409735 3.14883,-3.150196 0,-1.739085 -1.40974,-3.150196 -3.14883,-3.150196 -1.74046,0 -3.1502,1.411111 -3.1502,3.150196"
         id="path108214" />
      <path
         inkscape:connector-curvature="0"
         style="fill:#ffffff;fill-opacity:1;fill-rule:nonzero;stroke:none;stroke-width:0.352778"
         d="m 187.29109,77.359619 c -0.0675,-0.0055 -0.13508,-0.01101 -0.20398,-0.01101 -0.0689,0 -0.13779,0.0055 -0.20531,0.01101 v 3.139172 h 0.40929 z m 0,0"
         id="path108216" />
    </g>
    <path
       inkscape:connector-curvature="0"
       style="display:inline;fill:#000000;fill-opacity:1;fill-rule:nonzero;stroke:none;stroke-width:0.352778"
       d="m 20.85197,22.111602 c 0,1.740461 1.40974,3.150196 3.1502,3.150196 1.73909,0 3.14883,-1.409735 3.14883,-3.150196 0,-1.739085 -1.40974,-3.150196 -3.14883,-3.150196 -1.74046,0 -3.1502,1.411111 -3.1502,3.150196"
       id="path9812" />
    <g
       inkscape:label="Layer 1"
       id="g9816"
       transform="translate(-163.08494,-58.387189)"
       style="display:inline">
      <path
         inkscape:connector-curvature="0"
         style="fill:#ffffff;fill-opacity:1;fill-rule:nonzero;stroke:none;stroke-width:0.352778"
         d="m 187.29109,77.359619 c -0.0675,-0.0055 -0.13508,-0.01101 -0.20398,-0.01101 -0.0689,0 -0.13779,0.0055 -0.20531,0.01101 v 3.139172 h 0.40929 z m 0,0"
         id="path9814" />
    </g>
    <g
       inkscape:label="Layer 1"
       id="g18757"
       transform="translate(-171.61191,-63.395374)"
       style="display:inline">
      <path
         inkscape:connector-curvature="0"
         style="fill:#000000;fill-opacity:1;fill-rule:nonzero;stroke:none;stroke-width:0.352778"
         d="m 183.93691,80.498791 c 0,1.740461 1.40974,3.150196 3.1502,3.150196 1.73909,0 3.14883,-1.409735 3.14883,-3.150196 0,-1.739085 -1.40974,-3.150196 -3.14883,-3.150196 -1.74046,0 -3.1502,1.411111 -3.1502,3.150196"
         id="path18753" />
      <path
         inkscape:connector-curvature="0"
         style="fill:#ffffff;fill-opacity:1;fill-rule:nonzero;stroke:none;stroke-width:0.352778"
         d="m 187.29109,77.359619 c -0.0675,-0.0055 -0.13508,-0.01101 -0.20398,-0.01101 -0.0689,0 -0.13779,0.0055 -0.20531,0.01101 v 3.139172 h 0.40929 z m 0,0"
         id="path18755" />
    </g>
    <path
       inkscape:connector-curvature="0"
       style="fill:#211e1e;fill-opacity:1;fill-rule:nonzero;stroke:none;stroke-width:0.352778"
       d="m 20.369438,72.00517 c 0,2.760204 -2.239327,4.999496 -4.999531,4.999496 -2.76158,0 -5.000907,-2.239292 -5.000907,-4.999496 0,-2.761615 2.239327,-5.000907 5.000907,-5.000907 2.760204,0 4.999531,2.239292 4.999531,5.000907"
       id="path26168" />
    <g
       inkscape:label="Layer 1"
       id="layer1-0"
       transform="translate(-82.798518,-65.206103)">
      <path
         inkscape:connector-curvature="0"
         id="path9729"
         d="m 94.749847,123.36034 c -0.706931,1.94578 0.297674,4.09829 2.240704,4.8066 1.947157,0.70556 4.098289,-0.29626 4.805229,-2.24208 0.70968,-1.94578 -0.29355,-4.09688 -2.239337,-4.80522 -1.94578,-0.70693 -4.096913,0.29355 -4.806596,2.2407"
         style="fill:#2b2b2b;fill-opacity:1;fill-rule:nonzero;stroke:none;stroke-width:0.352778"
         sodipodi:nodetypes="ccccc" />
      <path
         inkscape:connector-curvature="0"
         id="path64013"
         d="m 99.30033,121.82382 c -1.557161,-0.56497 -3.279704,0.23703 -3.846089,1.79285 -0.565009,1.55716 0.237031,3.27833 1.794192,3.84334 1.557197,0.56776 3.276987,-0.23428 3.844747,-1.79144 0.56498,-1.55582 -0.23565,-3.27837 -1.79285,-3.84475"
         style="clip-rule:nonzero;fill:#5a5a5a;fill-opacity:1;fill-rule:nonzero;stroke:none;stroke-width:0.352778" />
    </g>
  </g>
</svg>
